<?xml version="1.0" encoding="utf-8"?>
<!-- Generator: Adobe Illustrator 16.0.0, SVG Export Plug-In . SVG Version: 6.00 Build 0)  -->
<!DOCTYPE svg PUBLIC "-//W3C//DTD SVG 1.1//EN" "http://www.w3.org/Graphics/SVG/1.1/DTD/svg11.dtd">
<svg version="1.1" id="Layer_1" xmlns="http://www.w3.org/2000/svg" xmlns:xlink="http://www.w3.org/1999/xlink" x="0px" y="0px"
	 width="460px" height="100px" viewBox="0 0 460 100" enable-background="new 0 0 460 100" xml:space="preserve">
<g>
	<path fill="#FFFFFF" d="M27.202,24.68v22.079h30.117v9.87H27.202v30.625H16.214V14.811h46.294v9.869H27.202z"/>
	<path fill="#FFFFFF" d="M116.223,80.132c-4.986,4.985-11.396,7.732-19.128,7.732c-7.732,0-14.041-2.747-19.026-7.732
		c-7.122-7.122-7.021-15.16-7.021-29.1c0-13.939-0.102-21.977,7.021-29.099c4.985-4.985,11.294-7.732,19.026-7.732
		c7.733,0,14.143,2.747,19.128,7.732c7.122,7.123,6.918,15.16,6.918,29.099C123.142,64.972,123.345,73.01,116.223,80.132z
		 M107.88,28.547c-2.544-2.747-6.512-4.477-10.785-4.477s-8.241,1.73-10.785,4.477c-3.561,3.866-4.273,7.936-4.273,22.485
		c0,14.55,0.712,18.62,4.273,22.486c2.544,2.747,6.512,4.477,10.785,4.477s8.241-1.729,10.785-4.477
		c3.561-3.866,4.273-7.937,4.273-22.486C112.154,36.483,111.441,32.413,107.88,28.547z"/>
	<path fill="#FFFFFF" d="M181.947,80.132c-4.986,4.985-11.396,7.732-19.128,7.732c-7.732,0-14.041-2.747-19.026-7.732
		c-7.122-7.122-7.021-15.16-7.021-29.1c0-13.939-0.102-21.977,7.021-29.099c4.985-4.985,11.294-7.732,19.026-7.732
		c7.733,0,14.143,2.747,19.128,7.732c7.122,7.123,6.918,15.16,6.918,29.099C188.865,64.972,189.069,73.01,181.947,80.132z
		 M173.603,28.547c-2.543-2.747-6.512-4.477-10.785-4.477s-8.241,1.73-10.785,4.477c-3.561,3.866-4.273,7.936-4.273,22.485
		c0,14.55,0.712,18.62,4.273,22.486c2.544,2.747,6.512,4.477,10.785,4.477s8.242-1.729,10.785-4.477
		c3.561-3.866,4.273-7.937,4.273-22.486C177.877,36.483,177.164,32.413,173.603,28.547z"/>
	<path fill="#FFFFFF" d="M227.624,24.68v62.574h-10.988V24.68h-19.942v-9.869h50.873v9.869H227.624z"/>
	<path fill="#FFFFFF" d="M260.076,87.254V14.811h46.295v9.869h-35.306v21.163h30.116v9.768h-30.116v21.773h35.306v9.869H260.076z"/>
	<path fill="#FFFFFF" d="M361.411,87.254L346.15,56.73h-13.735v30.523h-10.989V14.811h28.082c13.735,0,22.486,8.852,22.486,21.163
		c0,10.378-6.309,16.992-14.448,19.23l16.687,32.05H361.411z M348.694,24.68h-16.279V47.37h16.279
		c7.325,0,12.311-4.171,12.311-11.294C361.004,28.954,356.019,24.68,348.694,24.68z"/>
</g>
<g>
	<path fill="#FFFFFF" d="M439.246,96.292h-26.77v-6.58h20.904V78.471h5.865V96.292z"/>
	<path fill="#FFFFFF" d="M436.464,58.579c1.955,1.955,3.008,4.211,3.008,7.482s-1.053,5.527-3.008,7.482
		c-2.819,2.819-6.579,2.707-10.603,2.707s-7.783,0.112-10.603-2.707c-1.955-1.955-3.008-4.211-3.008-7.482s1.053-5.527,3.008-7.482
		c2.819-2.819,6.579-2.707,10.603-2.707S433.645,55.76,436.464,58.579z M419.281,63.43c-0.639,0.489-1.165,1.429-1.165,2.632
		s0.526,2.143,1.165,2.632c0.79,0.602,1.692,0.978,6.58,0.978s5.752-0.376,6.542-0.978c0.64-0.489,1.203-1.429,1.203-2.632
		s-0.563-2.143-1.203-2.632c-0.79-0.602-1.654-0.978-6.542-0.978S420.072,62.828,419.281,63.43z"/>
	<path fill="#FFFFFF" d="M436.464,34.251c2.368,2.293,3.008,4.85,3.008,7.783c0,3.121-1.053,5.489-3.008,7.444
		c-2.819,2.82-6.579,2.707-10.603,2.707s-7.783,0.113-10.603-2.707c-1.955-1.955-3.008-4.211-3.008-7.444
		c0-6.88,4.474-9.813,8.873-10.452v6.617c-2.03,0.526-3.008,1.579-3.008,3.835c0,1.203,0.526,2.105,1.165,2.594
		c0.79,0.602,1.692,0.978,6.58,0.978s5.828-0.376,6.617-0.978c0.639-0.489,1.128-1.391,1.128-2.594c0-1.391-0.413-2.331-1.053-2.933
		c-0.752-0.752-1.843-1.015-2.857-1.015h-0.376v3.948h-5.489v-10.49h3.722C431.877,31.544,434.397,32.221,436.464,34.251z"/>
	<path fill="#FFFFFF" d="M436.464,10.186c1.955,1.955,3.008,4.211,3.008,7.482s-1.053,5.527-3.008,7.482
		c-2.819,2.82-6.579,2.707-10.603,2.707s-7.783,0.113-10.603-2.707c-1.955-1.955-3.008-4.211-3.008-7.482s1.053-5.527,3.008-7.482
		c2.819-2.82,6.579-2.707,10.603-2.707S433.645,7.366,436.464,10.186z M419.281,15.036c-0.639,0.489-1.165,1.429-1.165,2.632
		s0.526,2.143,1.165,2.632c0.79,0.602,1.692,0.978,6.58,0.978s5.752-0.376,6.542-0.978c0.64-0.489,1.203-1.429,1.203-2.632
		s-0.563-2.143-1.203-2.632c-0.79-0.602-1.654-0.978-6.542-0.978S420.072,14.434,419.281,15.036z"/>
</g>
</svg>
