<?xml version="1.0" encoding="utf-8"?>
<!-- Generator: Adobe Illustrator 16.0.0, SVG Export Plug-In . SVG Version: 6.00 Build 0)  -->
<!DOCTYPE svg PUBLIC "-//W3C//DTD SVG 1.1//EN" "http://www.w3.org/Graphics/SVG/1.1/DTD/svg11.dtd">
<svg version="1.1" id="Layer_1" xmlns="http://www.w3.org/2000/svg" xmlns:xlink="http://www.w3.org/1999/xlink" x="0px" y="0px"
	 width="137.5px" height="50px" viewBox="0 0 137.5 50" enable-background="new 0 0 137.5 50" xml:space="preserve">
<g>
	<path d="M10.739,43.459V8.097h6.904v29.204h16.042v6.158H10.739z"/>
	<path d="M59.406,39.883c-2.483,2.483-5.513,3.874-9.536,3.874c-4.022,0-7.102-1.391-9.586-3.874
		c-3.575-3.575-3.476-7.996-3.476-14.105c0-6.109-0.1-10.528,3.476-14.104c2.484-2.483,5.563-3.874,9.586-3.874
		c4.023,0,7.053,1.391,9.536,3.874c3.576,3.576,3.525,7.996,3.525,14.104C62.932,31.887,62.982,36.308,59.406,39.883z M54.29,15.845
		c-0.993-1.142-2.532-1.888-4.42-1.888c-1.887,0-3.476,0.746-4.47,1.888c-1.341,1.49-1.688,3.129-1.688,9.933
		c0,6.805,0.348,8.443,1.688,9.934c0.994,1.143,2.583,1.887,4.47,1.887c1.888,0,3.427-0.744,4.42-1.887
		c1.341-1.49,1.739-3.129,1.739-9.934C56.029,18.974,55.631,17.334,54.29,15.845z"/>
	<path d="M91.789,39.734c-2.831,2.931-6.208,4.022-9.983,4.022c-3.874,0-7.053-1.391-9.535-3.874
		c-3.576-3.575-3.477-7.996-3.477-14.105c0-6.109-0.1-10.528,3.477-14.104c2.482-2.483,5.562-3.874,9.535-3.874
		c8.195,0,12.367,5.364,13.311,11.324h-6.953c-0.794-3.328-2.83-5.166-6.357-5.166c-1.887,0-3.427,0.746-4.42,1.888
		c-1.341,1.49-1.688,3.129-1.688,9.933c0,6.805,0.348,8.494,1.688,9.983c0.993,1.142,2.533,1.837,4.42,1.837
		c2.086,0,3.775-0.744,4.917-1.986c1.143-1.291,1.59-2.88,1.59-4.718v-1.341h-6.507v-5.762h13.36v5.165
		C95.166,34.072,94.272,37.151,91.789,39.734z"/>
	<path d="M123.575,39.883c-2.483,2.483-5.513,3.874-9.536,3.874c-4.022,0-7.102-1.391-9.585-3.874
		c-3.576-3.575-3.477-7.996-3.477-14.105c0-6.109-0.1-10.528,3.477-14.104c2.483-2.483,5.562-3.874,9.585-3.874
		c4.023,0,7.053,1.391,9.536,3.874c3.576,3.576,3.526,7.996,3.526,14.104C127.102,31.887,127.151,36.308,123.575,39.883z
		 M118.46,15.845c-0.993-1.142-2.533-1.888-4.421-1.888c-1.887,0-3.477,0.746-4.47,1.888c-1.341,1.49-1.688,3.129-1.688,9.933
		c0,6.805,0.348,8.443,1.688,9.934c0.993,1.143,2.583,1.887,4.47,1.887c1.888,0,3.428-0.744,4.421-1.887
		c1.341-1.49,1.738-3.129,1.738-9.934C120.198,18.974,119.801,17.334,118.46,15.845z"/>
</g>
</svg>
